<svg width="32" height="32" viewBox="0 0 32 32" fill="none" xmlns="http://www.w3.org/2000/svg">
<path d="M22.5728 10.4102H20.9239C20.5653 10.4102 20.2243 10.5824 20.0134 10.8777L14.4868 18.5418L11.9837 15.0684C11.7727 14.7766 11.4352 14.6008 11.0731 14.6008H9.42427C9.19576 14.6008 9.06216 14.8609 9.19576 15.0473L13.5762 21.1223C13.6797 21.2667 13.8161 21.3844 13.9742 21.4656C14.1322 21.5468 14.3074 21.5891 14.485 21.5891C14.6627 21.5891 14.8378 21.5468 14.9959 21.4656C15.1539 21.3844 15.2903 21.2667 15.3938 21.1223L22.7978 10.8566C22.9349 10.6703 22.8013 10.4102 22.5728 10.4102Z" fill="#6CAC4D"/>
<path d="M16 0.25C7.30234 0.25 0.25 7.30234 0.25 16C0.25 24.6977 7.30234 31.75 16 31.75C24.6977 31.75 31.75 24.6977 31.75 16C31.75 7.30234 24.6977 0.25 16 0.25ZM16 29.0781C8.77891 29.0781 2.92188 23.2211 2.92188 16C2.92188 8.77891 8.77891 2.92188 16 2.92188C23.2211 2.92188 29.0781 8.77891 29.0781 16C29.0781 23.2211 23.2211 29.0781 16 29.0781Z" fill="#6CAC4D"/>
</svg>
