<svg width="14" height="13" viewBox="0 0 14 13" fill="none" xmlns="http://www.w3.org/2000/svg">
<path d="M1.66671 13H2.33337V4.33334H1.66671C1.31308 4.33334 0.973945 4.47382 0.723896 4.72387C0.473848 4.97392 0.333372 5.31305 0.333372 5.66668V11.6667C0.333372 12.0203 0.473848 12.3594 0.723896 12.6095C0.973945 12.8595 1.31308 13 1.66671 13ZM12.3334 4.33334H7.66671L8.41471 2.08801C8.48145 1.88762 8.49963 1.67424 8.46775 1.46545C8.43588 1.25665 8.35485 1.05842 8.23136 0.887073C8.10786 0.715727 7.94542 0.576172 7.75743 0.479901C7.56943 0.38363 7.36125 0.333398 7.15004 0.333344H7.00004L3.66671 3.95868V13H11L13.608 7.26934L13.6667 7.00001V5.66668C13.6667 5.31305 13.5262 4.97392 13.2762 4.72387C13.0261 4.47382 12.687 4.33334 12.3334 4.33334Z" fill="#255897"/>
</svg>
