<svg width="14" height="13" viewBox="0 0 14 13" fill="none" xmlns="http://www.w3.org/2000/svg">
<path d="M12.3333 0H11.6667V8.66667H12.3333C12.687 8.66667 13.0261 8.52619 13.2761 8.27614C13.5262 8.02609 13.6667 7.68696 13.6667 7.33333V1.33333C13.6667 0.979711 13.5262 0.640573 13.2761 0.390524C13.0261 0.140476 12.687 0 12.3333 0ZM1.66667 8.66667H6.33333L5.58533 10.912C5.51859 11.1124 5.50041 11.3258 5.53228 11.5346C5.56416 11.7434 5.64518 11.9416 5.76868 12.1129C5.89218 12.2843 6.05461 12.4238 6.24261 12.5201C6.43061 12.6164 6.63879 12.6666 6.85 12.6667H7L10.3333 9.04133V0H3L0.375332 5.766L0.333332 5.96133V7.33333C0.333332 7.68696 0.473808 8.02609 0.723856 8.27614C0.973905 8.52619 1.31304 8.66667 1.66667 8.66667Z" fill="#255897"/>
</svg>
