<svg width="14" height="13" viewBox="0 0 14 13" fill="none" xmlns="http://www.w3.org/2000/svg">
<path d="M12.3334 0H3.46203C3.19078 0.0009006 2.92618 0.0841058 2.70322 0.238615C2.48027 0.393124 2.30945 0.611661 2.21337 0.865333L0.375367 5.766C0.34746 5.84085 0.333234 5.92011 0.333367 6V7.33333C0.333367 8.06867 0.931367 8.66667 1.6667 8.66667H5.40803L4.66003 10.9113C4.59334 11.1118 4.57513 11.3251 4.60688 11.534C4.63864 11.7428 4.71945 11.9411 4.8427 12.1127C5.09337 12.4593 5.49737 12.6667 5.92537 12.6667H7.00003C7.19803 12.6667 7.38537 12.5787 7.5127 12.4267L10.646 8.66667H12.3334C13.0687 8.66667 13.6667 8.06867 13.6667 7.33333V1.33333C13.6667 0.598 13.0687 0 12.3334 0ZM6.68737 11.3333H5.92403L6.96537 8.21067C6.99873 8.1105 7.00783 8.00384 6.9919 7.89947C6.97598 7.7951 6.9355 7.696 6.87379 7.61033C6.81208 7.52467 6.73091 7.45488 6.63695 7.40673C6.54299 7.35857 6.43895 7.33341 6.33337 7.33333H1.6667V6.12067L3.46203 1.33333H9.6667V7.75867L6.68737 11.3333ZM11 7.33333V1.33333H12.3334L12.334 7.33333H11Z" fill="#464646"/>
</svg>
