<svg width="14" height="13" viewBox="0 0 14 13" fill="none" xmlns="http://www.w3.org/2000/svg">
<path d="M12.3333 4.33334H8.592L9.34067 2.08867C9.47533 1.68334 9.40733 1.234 9.15733 0.887336C8.90733 0.540669 8.502 0.333336 8.07467 0.333336H7C6.802 0.333336 6.61467 0.421336 6.48733 0.573336L3.354 4.33334H1.66667C0.931333 4.33334 0.333333 4.93134 0.333333 5.66667V11.6667C0.333333 12.402 0.931333 13 1.66667 13H10.538C10.8093 12.9991 11.0739 12.9159 11.2968 12.7614C11.5198 12.6069 11.6906 12.3883 11.7867 12.1347L13.6247 7.234C13.6526 7.15915 13.6668 7.07989 13.6667 7V5.66667C13.6667 4.93134 13.0687 4.33334 12.3333 4.33334ZM1.66667 5.66667H3V11.6667H1.66667V5.66667ZM12.3333 6.87934L10.538 11.6667H4.33333V5.24134L7.312 1.66667H8.076L7.03467 4.78867C7.00086 4.88888 6.99143 4.9957 7.00716 5.10029C7.02289 5.20487 7.06332 5.3042 7.12511 5.39003C7.18689 5.47586 7.26825 5.54573 7.36243 5.59384C7.45661 5.64195 7.56091 5.66692 7.66667 5.66667H12.3333V6.87934Z" fill="#464646"/>
</svg>
