<svg width="58" height="70" viewBox="0 0 58 70" fill="none" xmlns="http://www.w3.org/2000/svg">
<path d="M48.3102 36.9441C48.2773 31.3496 50.8121 27.1332 55.9309 24.0242C53.068 19.9227 48.7367 17.6668 43.0273 17.232C37.6215 16.8055 31.707 20.382 29.5414 20.382C27.2527 20.382 22.0191 17.3797 17.9012 17.3797C9.40274 17.5109 0.371094 24.1555 0.371094 37.6742C0.371094 41.6691 1.10117 45.7953 2.56133 50.0445C4.51367 55.6391 11.552 69.3465 18.8937 69.125C22.7328 69.0348 25.448 66.4016 30.4437 66.4016C35.2918 66.4016 37.802 69.125 42.084 69.125C49.4914 69.0184 55.857 56.5578 57.7109 50.9469C47.777 46.2629 48.3102 37.2313 48.3102 36.9441ZM39.6887 11.9246C43.8477 6.98633 43.4703 2.49102 43.3473 0.875C39.6723 1.08828 35.423 3.37695 33.0031 6.19063C30.3371 9.20938 28.7703 12.9418 29.1066 17.15C33.077 17.4535 36.7027 15.4109 39.6887 11.9246Z" fill="#a3a3a3"/>
</svg>
