<svg width="122" height="26" viewBox="0 0 122 26" fill="none" xmlns="http://www.w3.org/2000/svg">
<path d="M121.512 6.83888V0.403381H97.844C92.903 0.403381 90.6765 3.45338 90.3105 6.41188V6.50338V0.403381H83.3565V6.83888H90.28H121.512ZM90.28 9.15688L83.326 8.76038V16.1719C83.326 18.4899 82.167 19.1914 78.141 19.1914H72.59C69.2655 19.1914 67.8625 18.2459 67.8625 16.1719V8.05888L60.817 7.54038V16.7514H60.6645C60.268 14.0674 59.2615 10.9564 52.5515 10.4989L30.5 9.03488C30.5 12.4204 32.9095 14.4334 36.6915 14.8299L52.0635 16.3854C53.2835 16.4769 54.168 16.8429 54.168 17.8494C54.168 18.9474 53.253 19.0694 51.85 19.0694H30.2255V9.03488L23.18 8.57738V25.5964H51.8805C58.2855 25.5964 60.329 22.2719 60.634 19.4964H60.7865C61.5795 23.8884 65.4225 25.5964 71.919 25.5964H79.0865C86.681 25.5964 90.28 23.2784 90.28 17.8494V9.15688ZM112.637 10.4684L90.585 9.15688C90.585 12.5424 92.8115 14.7994 96.5935 15.1044L112.301 16.3244C113.521 16.4159 114.253 16.7209 114.253 17.7274C114.253 18.6729 113.399 19.0389 111.63 19.0389H90.219V25.5964H112.088C118.98 25.5964 122 23.1869 122 17.6969C122 12.7559 119.286 10.8954 112.637 10.4684ZM60.817 0.403381H67.8625V6.83888H60.817V0.403381ZM19.3065 8.27238L11.651 7.50988L0 25.5964H8.5705L19.3065 8.27238ZM59.536 0.403381H38.0335C33.0315 0.403381 30.8355 3.51438 30.317 6.50338V0.403381H18.3915C16.714 0.403381 15.921 0.921881 15.128 2.08088L11.834 6.83888H59.536V0.403381Z" fill="#a3a3a3"/>
</svg>
