<svg width="74" height="74" viewBox="0 0 74 74" fill="none" xmlns="http://www.w3.org/2000/svg">
<path d="M37 74H35.7721L43.4796 53.3448H53.9576C55.8122 53.3448 57.6552 51.8023 58.2704 50.2622L66.6046 27.7523C67.8326 24.0546 65.6773 20.9721 61.9796 20.9721H47.4779L28.6773 73.075C12.0204 69.0651 0 54.575 0 37.0023C0 20.0447 11.4052 5.85525 27.1349 1.23025L20.0401 20.9697L8.01975 53.3448H15.7273L25.5924 25.8954H31.4454L21.5802 53.3448H29.2878L38.5378 27.75C39.7657 24.0523 37.9227 20.9697 33.9128 20.9697H27.7454L35.4529 0H36.9954C57.35 0 73.9954 16.6454 73.9954 37C73.9954 57.3546 57.35 74 36.9954 74H37ZM59.5099 25.5947H53.6454L45.3227 48.1046H51.1872L59.5099 25.5947Z" fill="#a3a3a3"/>
</svg>
