<svg width="102" height="46" viewBox="0 0 102 46" fill="none" xmlns="http://www.w3.org/2000/svg">
<path d="M22.4699 0.534454C16.5117 0.534454 10.7975 2.90135 6.58439 7.11445C2.37129 11.3275 0.00439453 17.0417 0.00439453 23C0.00439453 28.9582 2.37129 34.6724 6.58439 38.8855C10.7975 43.0986 16.5117 45.4654 22.4699 45.4654C28.3524 45.351 33.9554 42.9338 38.0752 38.7332C42.1949 34.5326 44.5026 28.8836 44.5026 23C44.5026 17.1163 42.1949 11.4673 38.0752 7.26671C33.9554 3.06607 28.3524 0.648884 22.4699 0.534454ZM22.4699 4.18945C22.6824 4.18945 23.1329 4.18945 23.3624 4.19795V5.9532C23.0649 5.94682 22.7674 5.94257 22.4699 5.94045C20.2305 5.93486 18.0122 6.37333 15.9434 7.23049C13.8745 8.08765 11.9961 9.34649 10.4169 10.9342C8.82842 12.5129 7.56908 14.3912 6.71186 16.4601C5.85465 18.5291 5.41661 20.7477 5.42314 22.9872C5.42314 27.5432 7.19539 31.8272 10.4169 35.0402C11.9961 36.6279 13.8745 37.8868 15.9434 38.7439C18.0122 39.6011 20.2305 40.0395 22.4699 40.034C26.7908 40.0271 30.9485 38.3829 34.1054 35.4326C37.2623 32.4823 39.1838 28.4453 39.4826 24.1347V23.8797H27.8461V22.1372H40.5154L41.2676 22.133V22.9872C41.2755 25.4567 40.7934 27.9031 39.8495 30.185C38.9055 32.467 37.5183 34.539 35.7681 36.2812C34.0248 38.0327 31.9515 39.4214 29.6682 40.3668C27.385 41.3122 24.9369 41.7956 22.4656 41.7892C17.4506 41.7892 12.7289 39.8342 9.16314 36.2812C7.41379 34.5386 6.02737 32.4665 5.08411 30.1846C4.14086 27.9027 3.6595 25.4564 3.66789 22.9872C3.67352 18.0019 5.65611 13.2224 9.18083 9.69689C12.7055 6.17137 17.4846 4.1877 22.4699 4.18095V4.18945ZM90.7334 7.92095C81.3409 7.92095 76.4024 13.0507 76.4024 22.83C76.4024 32.5625 80.8649 37.8325 90.6866 37.8325C95.1916 37.8325 99.6031 36.685 102 35.0062V20.9132H90.3551V26.3277H95.8164V31.4065C94.8092 31.789 92.8456 32.1757 90.9756 32.1757C84.9407 32.1757 82.9219 29.1072 82.9219 22.8767C82.9219 16.9352 84.8386 13.4332 90.8779 13.4332C94.2354 13.4332 96.1521 14.4872 97.7331 16.5017L101.907 12.6682C99.3652 9.02595 94.9069 7.92095 90.7334 7.92095ZM54.9781 8.35445V37.399H75.5906V31.7465H61.6931V8.35021L54.9781 8.35445ZM15.2959 13.1272C16.0116 13.1272 16.6981 13.4115 17.2042 13.9177C17.7103 14.4238 17.9946 15.1102 17.9946 15.826C17.9946 16.5417 17.7103 17.2281 17.2042 17.7343C16.6981 18.2404 16.0116 18.5247 15.2959 18.5247C14.5801 18.5247 13.8937 18.2404 13.3876 17.7343C12.8815 17.2281 12.5971 16.5417 12.5971 15.826C12.5971 15.1102 12.8815 14.4238 13.3876 13.9177C13.8937 13.4115 14.5801 13.1272 15.2959 13.1272ZM21.5774 13.1357H23.3624V31.0707H27.8334V32.8302H21.5774V13.1357Z" fill="#a3a3a3"/>
</svg>
