<svg width="86" height="66" viewBox="0 0 86 66" fill="none" xmlns="http://www.w3.org/2000/svg">
<path d="M32.375 0.147552C38.24 1.25255 46.825 3.84505 51.5 5.37505C63.1875 9.41255 67.1825 14.4276 67.1825 25.7326C67.1825 36.7826 60.3825 40.9476 51.7125 36.7826V16.2126C51.7125 13.8751 51.2875 11.6226 48.9925 10.9851C47.25 10.4326 46.23 12.0476 46.23 14.4276V65.8526L32.375 61.4326V0.147552ZM48.8225 56.8851L71.135 48.9376C73.685 48.0451 74.0675 46.7701 72.0275 46.0901C69.945 45.4101 66.2475 45.6226 63.6975 46.5151L48.8225 51.7426V43.4126L49.715 43.1151C49.715 43.1151 54.0075 41.5001 60 40.9476C66.0775 40.2676 73.4725 41.0326 79.2525 43.2001C85.7975 45.2826 86.5625 48.3426 84.905 50.4251C83.205 52.5501 79.125 54.0376 79.125 54.0376L48.8225 64.8751V56.8851ZM6.875 56.0351C0.2025 54.2501 -0.945 50.2126 2.115 47.8751C4.9625 45.7501 9.765 44.2626 9.765 44.2626L29.655 37.2501V45.2401L15.375 50.3826C12.825 51.2751 12.4425 52.5501 14.4825 53.2301C16.5225 53.9101 20.2625 53.7401 22.77 52.8051L29.655 50.3401V57.5226L28.295 57.7776C21.41 58.8826 14.1 58.5001 6.875 56.0351Z" fill="#a3a3a3"/>
</svg>
