<svg width="122" height="20" viewBox="0 0 122 20" fill="none" xmlns="http://www.w3.org/2000/svg">
<path d="M100.734 1.26184L100.974 14.9449H100.856L96.8833 1.26184H90.3715V18.4982H94.6796L94.4394 4.33853H94.5576L98.8086 18.4982H105.042V1.26184H100.734ZM18.6469 1.26184L15.3911 18.6773H20.0957L22.4976 2.83259H22.5967L24.9414 18.6773H29.6079L26.3901 1.26184H18.6469ZM44.9761 1.26184L42.8296 14.5446H42.7114L40.5459 1.26184H33.4356L33.0963 18.6773H37.4654L37.5836 3.01178H37.6217L40.5421 18.6773H44.9684L47.8888 3.01178H48.007L48.1252 18.6773H52.4943L52.0788 1.26184H44.9761ZM8.04056 13.7325C8.21975 14.129 8.15875 14.7238 8.10156 15.0021C7.98338 15.5968 7.564 16.1725 6.41263 16.1725C5.29938 16.1725 4.6665 15.5358 4.6665 14.6056V12.9167H0V14.2472C0 18.1588 3.07669 19.3102 6.35544 19.3102C9.49312 19.3102 12.1123 18.2198 12.5317 15.3605C12.7719 13.8507 12.5927 12.8595 12.5317 12.5011C11.7158 8.82584 5.06681 7.79647 4.60931 5.74916C4.54779 5.44084 4.54779 5.12341 4.60931 4.8151C4.7275 4.23941 5.124 3.64466 6.17625 3.64466C7.2285 3.64466 7.80419 4.28135 7.80419 5.2116V6.26385H12.1733V5.05147C12.1733 1.25803 8.73825 0.682343 6.29444 0.682343C3.19488 0.682343 0.636687 1.71553 0.179187 4.51391C0.0215056 5.28999 0.0423648 6.09176 0.240188 6.85859C0.934062 10.4538 7.17131 11.506 8.04437 13.7287L8.04056 13.7325ZM64.7324 13.7325C64.9116 14.129 64.8506 14.6666 64.7934 15.0021C64.6753 15.5968 64.2559 16.1725 63.1045 16.1725C61.9912 16.1725 61.3584 15.5358 61.3584 14.6056V12.9167H56.6919V14.2472C56.6919 18.0978 59.7114 19.2721 62.9863 19.2721C66.124 19.2721 68.686 18.2198 69.1016 15.2995C69.3418 13.7897 69.1626 12.8557 69.1016 12.4401C68.4077 8.82584 61.8159 7.73547 61.3584 5.74916C61.2969 5.44084 61.2969 5.12341 61.3584 4.8151C61.4575 4.23941 61.8731 3.64466 62.9253 3.64466C63.9166 3.64466 64.5532 4.28135 64.5532 5.2116V6.26385H68.8614V5.05147C68.8614 1.25803 65.4873 0.682343 63.0435 0.682343C59.9439 0.682343 57.4429 1.65453 56.9854 4.51391C56.8672 5.26878 56.8672 5.98172 57.0236 6.85859C57.7403 10.4538 63.8556 11.445 64.7286 13.7287L64.7324 13.7325ZM79.4067 16.0582C80.6382 16.0582 80.9737 15.2423 81.0957 14.7886C81.1567 14.6094 81.1567 14.312 81.1567 14.1328V1.26565H85.583V13.7935C85.583 14.1328 85.583 14.7848 85.522 14.9449C85.2437 18.2198 82.6626 19.2721 79.4639 19.2721C76.2653 19.2721 73.7071 18.2198 73.4059 14.9449C73.4059 14.7848 73.3449 14.129 73.3449 13.7935V1.26565H77.7712V14.1328C77.7712 14.373 77.7712 14.6094 77.8322 14.7886C77.8322 15.2461 78.1906 16.0582 79.3991 16.0582H79.4067ZM115.767 15.879C117.059 15.879 117.456 15.0631 117.574 14.6094C117.635 14.4302 117.635 14.1328 117.635 13.9727V11.4527H115.828V8.89066H122.004V13.5572C122.004 13.9155 122.004 14.1328 121.943 14.7276C121.645 17.9263 118.904 19.0357 115.828 19.0357C112.728 19.0357 110.01 17.9225 109.712 14.7276C109.651 14.1328 109.651 13.9117 109.651 13.5572V6.21047C109.651 5.93216 109.712 5.33741 109.712 5.0591C110.109 1.78416 112.732 0.731907 115.828 0.731907C118.904 0.731907 121.584 1.78416 121.943 5.0591C122.004 5.57378 122.004 6.21047 122.004 6.21047V6.80522H117.635V5.81397C117.635 5.81397 117.635 5.3984 117.574 5.15822C117.513 4.76172 117.158 3.88866 115.828 3.88866C114.535 3.88866 114.2 4.70453 114.081 5.15822C114.02 5.3984 114.02 5.69578 114.02 5.99316V13.9765C114.02 14.1938 114.02 14.434 114.081 14.6132C114.081 15.0707 114.539 15.8828 115.77 15.8828L115.767 15.879Z" fill="#a3a3a3"/>
</svg>
