<svg width="132" height="36" viewBox="0 0 132 36" fill="none" xmlns="http://www.w3.org/2000/svg">
<path d="M125.972 0H101.863C98.534 0 95.8354 2.68629 95.8354 6V30C95.8354 33.3137 98.534 36 101.863 36H125.972C129.301 36 132 33.3137 132 30V6C132 2.68629 129.301 0 125.972 0Z" fill="white"/>
<path d="M109.658 25.2V18.8064H106.078V25.2H102.627V9.90723H106.078V15.7176H109.658V9.90723H113.108V25.2H109.658ZM126.548 17.5968C126.548 18.7488 126.418 19.7928 126.157 20.7288C125.911 21.6648 125.528 22.464 125.007 23.1264C124.486 23.7888 123.821 24.3 123.011 24.66C122.215 25.02 121.268 25.2 120.168 25.2H115.85V9.90723H120.168C121.268 9.90723 122.215 10.0872 123.011 10.4472C123.821 10.8072 124.486 11.3256 125.007 12.0024C125.528 12.6648 125.911 13.4712 126.157 14.4216C126.418 15.3576 126.548 16.416 126.548 17.5968ZM123.054 17.5968C123.054 16.056 122.787 14.8968 122.251 14.1192C121.731 13.3272 121.051 12.9312 120.211 12.9312H119.366V22.176H120.211C121.051 22.176 121.731 21.7872 122.251 21.0096C122.787 20.2176 123.054 19.08 123.054 17.5968Z" fill="#255897"/>
<path d="M4.79512 25.2H1.25342V3.35999H4.32498V17.1816L5.57868 12.3768L8.3995 3.35999H12.1919V25.2H9.08903V9.81839L7.67862 15.1848L4.79512 25.2ZM21.9319 18.8664L24.2825 3.35999H29.0779V25.2H25.8183V9.53758L23.4363 25.2H20.1767L17.6066 9.75598V25.2H14.5977V3.35999H19.3931L21.9319 18.8664ZM35.0335 25.2H31.5858V3.35999H42.4616V25.2H38.9513V6.47999H35.0335V25.2ZM48.4091 12.564H53.1418V15.684H48.4091V22.08H54.3642V25.2H44.9614V3.35999H54.3642V6.47999H48.4091V12.564ZM61.578 3.35999C63.3121 3.35999 64.5971 3.81758 65.4331 4.73279C66.2896 5.64798 66.7182 6.98957 66.7182 8.75759V11.5968C66.7182 13.3648 66.2896 14.7064 65.4331 15.6216C64.5971 16.5368 63.3121 16.9944 61.578 16.9944H59.9483V25.2H56.5007V3.35999H61.578ZM59.9483 6.47999V13.8744H61.578C62.1211 13.8744 62.5394 13.7288 62.8317 13.4376C63.1241 13.1464 63.2705 12.6056 63.2705 11.8152V8.53919C63.2705 7.74881 63.1241 7.20797 62.8317 6.91679C62.5394 6.62561 62.1211 6.47999 61.578 6.47999H59.9483ZM71.8571 25.2H68.3155V3.35999H71.387V17.1816L72.6407 12.3768L75.4615 3.35999H79.254V25.2H76.1511V9.81839L74.7407 15.1848L71.8571 25.2ZM81.064 25.2C81.2309 24.784 81.3358 24.3784 81.3774 23.9832C81.419 23.5672 81.4401 23.0888 81.4401 22.548V19.1784C81.4401 18.0344 81.5968 17.0672 81.9102 16.2768C82.2448 15.4656 82.8505 14.8832 83.7281 14.5296C82.2237 13.8224 81.4715 12.3456 81.4715 10.0992V8.38318C81.4715 6.69839 81.8687 5.43999 82.6625 4.60799C83.4774 3.77598 84.7835 3.35999 86.5803 3.35999H91.7831V25.2H88.3354V16.308H87.1444C86.3506 16.308 85.7756 16.516 85.4206 16.932C85.0656 17.348 84.8878 18.0656 84.8878 19.0848V22.5168C84.8878 22.9536 84.8775 23.3176 84.8564 23.6088C84.8564 23.9 84.8353 24.1392 84.7937 24.3264C84.7727 24.5136 84.7413 24.6696 84.6997 24.7944C84.6581 24.9192 84.6159 25.0544 84.5744 25.2H81.064ZM86.6743 6.47999C86.0685 6.47999 85.6189 6.65681 85.3266 7.01039C85.0547 7.36397 84.9191 7.93601 84.9191 8.72639V10.8792C84.9191 11.7528 85.0969 12.356 85.4519 12.6888C85.828 13.0216 86.3398 13.188 86.9877 13.188H88.3354V6.47999H86.6743Z" fill="white"/>
<path d="M2.19836 28.0547L4.01953 32.5793L5.8407 28.0547H6.79336V33.6H6.0588V31.4405L6.12764 29.1096L4.29883 33.6H3.7364L1.91141 29.1211L1.9841 31.4405V33.6H1.24951V28.0547H2.19836ZM11.0002 32.1527H8.66644L8.14223 33.6H7.38471L9.51196 28.0547H10.1547L12.2858 33.6H11.5321L11.0002 32.1527ZM8.8883 31.551H10.7822L9.83334 28.9573L8.8883 31.551ZM16.2555 28.6564H13.5697V33.6H12.8312V28.0547H16.2555V28.6564ZM19.261 32.1527H16.9272L16.403 33.6H15.6455L17.7727 28.0547H18.4155L20.5466 33.6H19.7928L19.261 32.1527ZM17.1491 31.551H19.043L18.0941 28.9573L17.1491 31.551ZM23.9194 29.5438C23.9194 29.2493 23.811 29.0157 23.5942 28.8431C23.3799 28.6679 23.0777 28.5803 22.6874 28.5803C22.3609 28.5803 22.0867 28.6704 21.8648 28.8507C21.6455 29.0284 21.5358 29.2493 21.5358 29.5134H20.8012C20.8012 29.2188 20.8816 28.9548 21.0422 28.7212C21.2055 28.4876 21.4325 28.3061 21.7233 28.1765C22.014 28.0445 22.3354 27.9785 22.6874 27.9785C23.3098 27.9785 23.7932 28.1181 24.1375 28.3974C24.4818 28.6742 24.654 29.0601 24.654 29.5553C24.654 29.8117 24.5749 30.0453 24.4167 30.2561C24.2586 30.4668 24.038 30.6331 23.7549 30.755C24.4104 30.9733 24.7381 31.4063 24.7381 32.0537C24.7381 32.5514 24.5519 32.9462 24.1796 33.2382C23.8071 33.5301 23.3098 33.6762 22.6874 33.6762C22.3176 33.6762 21.9809 33.6114 21.6774 33.4819C21.3764 33.3499 21.1417 33.1632 20.9734 32.922C20.805 32.6808 20.7209 32.3939 20.7209 32.0613H21.4554C21.4554 32.3533 21.5715 32.5971 21.8036 32.7926C22.0357 32.9855 22.3303 33.082 22.6874 33.082C23.0879 33.082 23.4067 32.9894 23.6439 32.804C23.8837 32.6186 24.0036 32.3736 24.0036 32.0689C24.0036 31.4189 23.5993 31.0876 22.7907 31.0749H22.102V30.4731H22.7869C23.1593 30.4655 23.4412 30.3817 23.6325 30.2217C23.8237 30.0618 23.9194 29.8358 23.9194 29.5438ZM28.9909 28.0547H29.7256V33.6H28.9909V29.3267L26.2478 33.6H25.5093V28.0547H26.2478V32.3279L28.9909 28.0547ZM35.1109 33.6H34.3724V31.0368H31.5642V33.6H30.8296V28.0547H31.5642V30.4388H34.3724V28.0547H35.1109V33.6ZM38.5432 31.8404C38.6146 32.2974 38.7588 32.6186 38.9756 32.804C39.1949 32.9868 39.5086 33.0782 39.9167 33.0782C40.358 33.0782 40.7062 32.9068 40.9612 32.564C41.2188 32.2212 41.3502 31.7452 41.3553 31.1358H39.163V30.534H41.3553C41.3553 29.9323 41.2227 29.4563 40.9574 29.1059C40.6947 28.7555 40.3261 28.5803 39.8517 28.5803C39.4691 28.5803 39.1707 28.6793 38.9565 28.8773C38.7447 29.0754 38.607 29.3953 38.5432 29.8371H37.8048C37.8634 29.2556 38.0713 28.8012 38.4285 28.4736C38.7855 28.1435 39.2599 27.9785 39.8517 27.9785C40.3006 27.9785 40.6947 28.0851 41.0339 28.2984C41.3757 28.5092 41.6371 28.8113 41.8183 29.2049C42.0019 29.5959 42.0937 30.0465 42.0937 30.5569V31.1091C42.0937 31.6195 42.0032 32.0702 41.8221 32.4612C41.641 32.8522 41.3847 33.1531 41.0531 33.3638C40.7241 33.5721 40.3453 33.6762 39.9167 33.6762C39.3097 33.6762 38.8225 33.5175 38.4552 33.2001C38.0905 32.8802 37.8737 32.4269 37.8048 31.8404H38.5432ZM47.0391 28.0547V33.6H46.3045V28.6564H44.3073L44.2078 30.854C44.1696 31.5903 44.0931 32.1438 43.9782 32.5145C43.866 32.8853 43.7003 33.1582 43.4809 33.3334C43.2615 33.506 42.9682 33.5949 42.6009 33.6H42.3599V33.002L42.5129 32.9944C42.7501 32.9766 42.9325 32.9004 43.06 32.7659C43.1876 32.6288 43.2845 32.4117 43.3508 32.1146C43.4171 31.8176 43.4643 31.3605 43.4924 30.7436L43.6071 28.0547H47.0391ZM51.288 31.0368H48.8738V33.002H51.6783V33.6H48.1393V28.0547H51.64V28.6564H48.8738V30.4388H51.288V31.0368ZM53.8039 31.1091H53.1266V33.6H52.3921V28.0547H53.1266V30.4998H53.7006L55.648 28.0547H56.5624L54.4351 30.7436L56.7193 33.6H55.8201L53.8039 31.1091ZM61.0065 28.6564H59.2159V33.6H58.4852V28.6564H56.6985V28.0547H61.0065V28.6564ZM62.3325 31.4291V33.6H61.5978V28.0547H63.6525C64.2619 28.0547 64.7393 28.2096 65.0834 28.5193C65.43 28.8291 65.6036 29.2391 65.6036 29.7495C65.6036 30.2878 65.4342 30.7029 65.0949 30.9949C64.7579 31.2843 64.2745 31.4291 63.6447 31.4291H62.3325ZM62.3325 30.8312H63.6525C64.0449 30.8312 64.3463 30.7397 64.5554 30.5569C64.7646 30.3716 64.8688 30.105 64.8688 29.7571C64.8688 29.427 64.7646 29.163 64.5554 28.9649C64.3463 28.7669 64.0594 28.664 63.6947 28.6564H62.3325V30.8312ZM70.5913 31.0063C70.5913 31.5497 70.499 32.0245 70.3158 32.4308C70.132 32.8344 69.8716 33.143 69.5353 33.3563C69.1983 33.5695 68.8053 33.6762 68.3569 33.6762C67.9181 33.6762 67.5287 33.5695 67.19 33.3563C66.8506 33.1404 66.5867 32.8344 66.398 32.4384C66.2117 32.0397 66.1159 31.5789 66.1111 31.0559V30.656C66.1111 30.1227 66.2039 29.6517 66.3902 29.243C66.5764 28.8342 66.8392 28.5219 67.1785 28.3061C67.5203 28.0877 67.9103 27.9785 68.3491 27.9785C68.7951 27.9785 69.1881 28.0864 69.5274 28.3022C69.8692 28.5155 70.132 28.8266 70.3158 29.2353C70.499 29.6416 70.5913 30.1151 70.5913 30.656V31.0063ZM69.8601 30.6483C69.8601 29.9907 69.7275 29.4867 69.4623 29.1363C69.1971 28.7834 68.8258 28.6069 68.3491 28.6069C67.8849 28.6069 67.5185 28.7834 67.2509 29.1363C66.9857 29.4867 66.8494 29.9742 66.8416 30.5988V31.0063C66.8416 31.6436 66.9754 32.1451 67.243 32.5107C67.5137 32.8738 67.885 33.0554 68.3569 33.0554C68.8313 33.0554 69.1983 32.8839 69.4587 32.5412C69.7185 32.1959 69.8529 31.7021 69.8601 31.0596V30.6483ZM75.7393 33.6H75.0009V31.0368H72.1927V33.6H71.458V28.0547H72.1927V30.4388H75.0009V28.0547H75.7393V33.6ZM80.3213 28.0547H81.0554V33.6H80.3213V29.3267L77.5776 33.6H76.8393V28.0547H77.5776V32.3279L80.3213 28.0547ZM83.6056 31.1091H82.9287V33.6H82.194V28.0547H82.9287V30.4998H83.5025L85.45 28.0547H86.3643L84.2373 30.7436L86.5211 33.6H85.6224L83.6056 31.1091ZM90.472 28.0547H91.2062V33.6H90.472V29.3267L87.7283 33.6H86.99V28.0547H87.7283V32.3279L90.472 28.0547Z" fill="white"/>
</svg>
