<svg width="167" height="46" viewBox="0 0 167 46" fill="none" xmlns="http://www.w3.org/2000/svg">
<path d="M159.374 0H128.872C124.661 0 121.247 3.43248 121.247 7.66667V38.3333C121.247 42.5675 124.661 46 128.872 46H159.374C163.586 46 167 42.5675 167 38.3333V7.66667C167 3.43248 163.586 0 159.374 0Z" fill="url(#paint0_linear)"/>
<path d="M138.734 32.2V24.0304H134.204V32.2H129.839V12.6592H134.204V20.0836H138.734V12.6592H143.099V32.2H138.734ZM160.102 22.4848C160.102 23.9568 159.937 25.2908 159.608 26.4868C159.297 27.6828 158.812 28.704 158.153 29.5504C157.494 30.3968 156.652 31.05 155.628 31.51C154.621 31.97 153.422 32.2 152.031 32.2H146.568V12.6592H152.031C153.422 12.6592 154.621 12.8892 155.628 13.3492C156.652 13.8092 157.494 14.4716 158.153 15.3364C158.812 16.1828 159.297 17.2132 159.608 18.4276C159.937 19.6236 160.102 20.976 160.102 22.4848ZM155.682 22.4848C155.682 20.516 155.344 19.0348 154.667 18.0412C154.008 17.0292 153.148 16.5232 152.085 16.5232H151.016V28.336H152.085C153.148 28.336 154.008 27.8392 154.667 26.8456C155.344 25.8336 155.682 24.38 155.682 22.4848Z" fill="white"/>
<path d="M6.06672 32.2H1.58594V4.29333H5.47193V21.9543L7.05805 15.8148L10.6268 4.29333H15.4248V32.2H11.4992V12.5457L9.7148 19.4028L6.06672 32.2ZM27.7473 24.1071L30.7213 4.29333H36.7882V32.2H32.6643V12.1869L29.6506 32.2H25.5267L22.2752 12.466V32.2H18.4685V4.29333H24.5354L27.7473 24.1071ZM44.3228 32.2H39.961V4.29333H53.7206V32.2H49.2795V8.28H44.3228V32.2ZM61.245 16.054H67.2327V20.0407H61.245V28.2133H68.7791V32.2H56.8832V4.29333H68.7791V8.28H61.245V16.054ZM77.9057 4.29333C80.0996 4.29333 81.7253 4.87804 82.783 6.04747C83.8666 7.21689 84.4088 8.93113 84.4088 11.1903V14.8181C84.4088 17.0773 83.8666 18.7915 82.783 19.9609C81.7253 21.1303 80.0996 21.7151 77.9057 21.7151H75.8439V32.2H71.4821V4.29333H77.9057ZM75.8439 8.28V17.7284H77.9057C78.5928 17.7284 79.122 17.5423 79.4918 17.1703C79.8617 16.7982 80.047 16.1071 80.047 15.0972V10.9112C80.047 9.90127 79.8617 9.2102 79.4918 8.83813C79.122 8.46607 78.5928 8.28 77.9057 8.28H75.8439ZM90.9103 32.2H86.4296V4.29333H90.3156V21.9543L91.9017 15.8148L95.4704 4.29333H100.268V32.2H96.3428V12.5457L94.5584 19.4028L90.9103 32.2ZM102.558 32.2C102.77 31.6685 102.902 31.1502 102.955 30.6452C103.008 30.1137 103.034 29.5023 103.034 28.8113V24.5057C103.034 23.0439 103.233 21.8081 103.629 20.7981C104.052 19.7616 104.819 19.0174 105.929 18.5656C104.026 17.6619 103.074 15.7749 103.074 12.9045V10.7119C103.074 8.55907 103.576 6.95112 104.581 5.888C105.612 4.82489 107.264 4.29333 109.537 4.29333H116.12V32.2H111.758V20.838H110.251C109.247 20.838 108.519 21.1038 108.07 21.6353C107.621 22.1669 107.396 23.0838 107.396 24.3861V28.7715C107.396 29.3296 107.383 29.7947 107.356 30.1668C107.356 30.5389 107.33 30.8445 107.277 31.0837C107.25 31.3229 107.211 31.5223 107.158 31.6817C107.106 31.8412 107.052 32.0139 107 32.2H102.558ZM109.656 8.28C108.89 8.28 108.321 8.50594 107.951 8.95774C107.607 9.40953 107.436 10.1405 107.436 11.1504V13.9012C107.436 15.0175 107.661 15.7882 108.11 16.2135C108.586 16.6387 109.233 16.8513 110.053 16.8513H111.758V8.28H109.656Z" fill="#464646"/>
<path d="M2.781 35.8477L5.08506 41.6291L7.38911 35.8477H8.59438V42.9333H7.66505V40.174L7.75213 37.1957L5.43841 42.9333H4.72686L2.41797 37.2103L2.50993 40.174V42.9333H1.58057V35.8477H2.781ZM13.9167 41.0841H10.9641L10.3009 42.9333H9.34252L12.0338 35.8477H12.847L15.5431 42.9333H14.5896L13.9167 41.0841ZM11.2448 40.3152H13.6408L12.4404 37.001L11.2448 40.3152ZM20.5654 36.6165H17.1674V42.9333H16.2332V35.8477H20.5654V36.6165ZM24.3679 41.0841H21.4152L20.7521 42.9333H19.7937L22.4849 35.8477H23.2982L25.9943 42.9333H25.0407L24.3679 41.0841ZM21.6959 40.3152H24.092L22.8916 37.001L21.6959 40.3152ZM30.2614 37.7504C30.2614 37.3742 30.1243 37.0756 29.85 36.8551C29.5789 36.6312 29.1965 36.5193 28.7028 36.5193C28.2897 36.5193 27.9428 36.6344 27.662 36.8648C27.3845 37.0919 27.2458 37.3742 27.2458 37.7116H26.3164C26.3164 37.3352 26.4181 36.9978 26.6214 36.6993C26.8279 36.4008 27.1151 36.1689 27.483 36.0034C27.8509 35.8347 28.2574 35.7504 28.7028 35.7504C29.4901 35.7504 30.1017 35.9288 30.5373 36.2857C30.9729 36.6393 31.1908 37.1324 31.1908 37.7651C31.1908 38.0928 31.0907 38.3912 30.8906 38.6606C30.6906 38.9298 30.4114 39.1423 30.0533 39.298C30.8826 39.577 31.2972 40.1303 31.2972 40.9576C31.2972 41.5934 31.0617 42.0979 30.5906 42.471C30.1194 42.8441 29.4901 43.0307 28.7028 43.0307C28.2349 43.0307 27.8089 42.9479 27.4249 42.7825C27.0441 42.6138 26.7472 42.3753 26.5342 42.0671C26.3212 41.7589 26.2148 41.3923 26.2148 40.9672H27.1441C27.1441 41.3404 27.291 41.6519 27.5846 41.9016C27.8783 42.1482 28.251 42.2715 28.7028 42.2715C29.2094 42.2715 29.6128 42.1531 29.9129 41.9162C30.2162 41.6794 30.3679 41.3664 30.3679 40.977C30.3679 40.1464 29.8565 39.7231 28.8335 39.7068H27.9622V38.9379H28.8286C29.2998 38.9282 29.6564 38.8211 29.8984 38.6167C30.1404 38.4123 30.2614 38.1236 30.2614 37.7504ZM36.6777 35.8477H37.6071V42.9333H36.6777V37.4731L33.2071 42.9333H32.2729V35.8477H33.2071V41.3079L36.6777 35.8477ZM44.4203 42.9333H43.4861V39.6581H39.9332V42.9333H39.0039V35.8477H39.9332V38.8941H43.4861V35.8477H44.4203V42.9333ZM48.7628 40.685C48.8531 41.269 49.0354 41.6794 49.3097 41.9162C49.5872 42.1498 49.9841 42.2667 50.5005 42.2667C51.0587 42.2667 51.4992 42.0476 51.8219 41.6096C52.1478 41.1716 52.3141 40.5633 52.3205 39.7847H49.5469V39.0158H52.3205C52.3205 38.2469 52.1527 37.6386 51.8171 37.1909C51.4847 36.7431 51.0184 36.5193 50.4182 36.5193C49.9341 36.5193 49.5566 36.6458 49.2856 36.8988C49.0177 37.1519 48.8434 37.5607 48.7628 38.1252H47.8286C47.9027 37.3822 48.1658 36.8015 48.6176 36.383C49.0693 35.9612 49.6695 35.7504 50.4182 35.7504C50.9862 35.7504 51.4847 35.8866 51.9139 36.1592C52.3463 36.4284 52.677 36.8145 52.9062 37.3174C53.1385 37.817 53.2547 38.3928 53.2547 39.045V39.7506C53.2547 40.4027 53.1401 40.9786 52.911 41.4783C52.6819 41.9778 52.3576 42.3623 51.9381 42.6316C51.5218 42.8977 51.0427 43.0307 50.5005 43.0307C49.7325 43.0307 49.1161 42.8279 48.6514 42.4224C48.19 42.0136 47.9157 41.4344 47.8286 40.685H48.7628ZM59.5113 35.8477V42.9333H58.5819V36.6165H56.0552L55.9293 39.4245C55.8809 40.3655 55.7842 41.0727 55.6389 41.5464C55.4969 42.0201 55.2872 42.3688 55.0096 42.5927C54.7321 42.8133 54.361 42.9268 53.8964 42.9333H53.5914V42.1693L53.785 42.1595C54.0851 42.1369 54.3159 42.0395 54.4772 41.8676C54.6386 41.6923 54.7612 41.415 54.8451 41.0354C54.929 40.6558 54.9887 40.0718 55.0242 39.2835L55.1694 35.8477H59.5113ZM64.8869 39.6581H61.8325V42.1693H65.3806V42.9333H60.9032V35.8477H65.3322V36.6165H61.8325V38.8941H64.8869V39.6581ZM68.0698 39.7506H67.213V42.9333H66.2837V35.8477H67.213V38.972H67.9391L70.4028 35.8477H71.5597L68.8684 39.2835L71.7582 42.9333H70.6207L68.0698 39.7506ZM77.1822 36.6165H74.9169V42.9333H73.9923V36.6165H71.7319V35.8477H77.1822V36.6165ZM78.8598 40.1594V42.9333H77.9303V35.8477H80.5298C81.3008 35.8477 81.9047 36.0456 82.3401 36.4414C82.7786 36.8372 82.9982 37.3611 82.9982 38.0133C82.9982 38.7011 82.7839 39.2315 82.3546 39.6046C81.9284 39.9745 81.3168 40.1594 80.5199 40.1594H78.8598ZM78.8598 39.3954H80.5298C81.0263 39.3954 81.4075 39.2786 81.6721 39.045C81.9367 38.8081 82.0687 38.4675 82.0687 38.023C82.0687 37.6013 81.9367 37.2638 81.6721 37.0108C81.4075 36.7577 81.0445 36.6263 80.5832 36.6165H78.8598V39.3954ZM89.3084 39.6192C89.3084 40.3135 89.1917 40.9202 88.9599 41.4393C88.7273 41.9552 88.3979 42.3494 87.9724 42.6219C87.5461 42.8944 87.0489 43.0307 86.4816 43.0307C85.9264 43.0307 85.4338 42.8944 85.0053 42.6219C84.576 42.3461 84.242 41.9552 84.0033 41.4491C83.7676 40.9397 83.6464 40.3508 83.6403 39.6825V39.1715C83.6403 38.4902 83.7577 37.8884 83.9934 37.366C84.229 36.8437 84.5615 36.4447 84.9908 36.1689C85.4231 35.8898 85.9165 35.7504 86.4717 35.7504C87.036 35.7504 87.5331 35.8882 87.9625 36.164C88.3948 36.4365 88.7273 36.834 88.9599 37.3563C89.1917 37.8754 89.3084 38.4805 89.3084 39.1715V39.6192ZM88.3834 39.1618C88.3834 38.3215 88.2156 37.6775 87.8801 37.2297C87.5446 36.7788 87.0749 36.5533 86.4717 36.5533C85.8845 36.5533 85.4209 36.7788 85.0823 37.2297C84.7468 37.6775 84.5744 38.3004 84.5645 39.0985V39.6192C84.5645 40.4335 84.7338 41.0743 85.0724 41.5415C85.4148 42.0054 85.8845 42.2374 86.4816 42.2374C87.0817 42.2374 87.5461 42.0184 87.8755 41.5805C88.2042 41.1392 88.3743 40.5082 88.3834 39.6874V39.1618ZM95.8214 42.9333H94.8872V39.6581H91.3345V42.9333H90.4049V35.8477H91.3345V38.8941H94.8872V35.8477H95.8214V42.9333ZM101.618 35.8477H102.547V42.9333H101.618V37.4731L98.1472 42.9333H97.2131V35.8477H98.1472V41.3079L101.618 35.8477ZM105.774 39.7506H104.917V42.9333H103.988V35.8477H104.917V38.972H105.643L108.107 35.8477H109.264L106.573 39.2835L109.462 42.9333H108.325L105.774 39.7506ZM114.461 35.8477H115.389V42.9333H114.461V37.4731L110.989 42.9333H110.055V35.8477H110.989V41.3079L114.461 35.8477Z" fill="#464646"/>
<defs>
<linearGradient id="paint0_linear" x1="167" y1="1.56131e-06" x2="123.258" y2="52.1576" gradientUnits="userSpaceOnUse">
<stop stop-color="#83B3EE"/>
<stop offset="1" stop-color="#255897"/>
</linearGradient>
</defs>
</svg>
