<svg xmlns="http://www.w3.org/2000/svg" display="none">
    <symbol id="icon-menu1" viewBox="0 0 22 18">
        <path fill-rule="evenodd" clip-rule="evenodd"
              d="M10 14H3C1.34315 14 0 12.6569 0 11V3C0 1.34315 1.34315 0 3 0H19C20.6569 0 22 1.34315 22 3V11C22 12.6569 20.6569 14 19 14H12V16H15C15.5523 16 16 16.4477 16 17C16 17.5523 15.5523 18 15 18H7C6.44772 18 6 17.5523 6 17C6 16.4477 6.44772 16 7 16H10V14ZM3 2H19C19.5523 2 20 2.44772 20 3V11C20 11.5523 19.5523 12 19 12H3C2.44772 12 2 11.5523 2 11V3C2 2.44772 2.44772 2 3 2Z"/>
    </symbol>

    <symbol id="icon-menu2" viewBox="0 0 14 20">
        <path d="M8 14H6V16H8V14Z"/>
        <path fill-rule="evenodd" clip-rule="evenodd"
              d="M0 2C0 0.895431 0.895431 0 2 0H12C13.1046 0 14 0.895431 14 2V18C14 19.1046 13.1046 20 12 20H2C0.89543 20 0 19.1046 0 18V2ZM2 2H12V18H2L2 2Z"/>
    </symbol>

    <symbol id="icon-menu3" viewBox="0 0 12 21">
        <path fill-rule="evenodd" clip-rule="evenodd"
              d="M3 0C2.44771 0 2 0.447715 2 1V3C2 3.55228 2.44771 4 3 4C3.55229 4 4 3.55228 4 3V1C4 0.447715 3.55229 0 3 0ZM2 7H10V9C10 11.2091 8.20914 13 6 13C3.79086 13 2 11.2091 2 9V7ZM7 14.917C9.83771 14.441 12 11.973 12 9V5H0V9C0 11.973 2.16229 14.441 5 14.917V20C5 20.5523 5.44771 21 6 21C6.55229 21 7 20.5523 7 20V14.917ZM8 1C8 0.447715 8.44771 0 9 0C9.55229 0 10 0.447715 10 1V3C10 3.55228 9.55229 4 9 4C8.44771 4 8 3.55228 8 3V1Z"/>
    </symbol>

    <symbol id="icon-menu4" viewBox="0 0 16 22">
        <path fill-rule="evenodd" clip-rule="evenodd"
              d="M8 17.939C10.2091 17.939 12 16.1482 12 13.939C12 11.7299 10.2091 9.93903 8 9.93903C5.79086 9.93903 4 11.7299 4 13.939C4 16.1482 5.79086 17.939 8 17.939ZM8 15.939C9.10457 15.939 10 15.0436 10 13.939C10 12.8345 9.10457 11.939 8 11.939C6.89543 11.939 6 12.8345 6 13.939C6 15.0436 6.89543 15.939 8 15.939Z"/>
        <path
                d="M8 8.04401C9.10457 8.04401 10 7.14858 10 6.04401C10 4.93944 9.10457 4.04401 8 4.04401C6.89543 4.04401 6 4.93944 6 6.04401C6 7.14858 6.89543 8.04401 8 8.04401Z"/>
        <path fill-rule="evenodd" clip-rule="evenodd"
              d="M3 0C1.34315 0 0 1.34315 0 3V19C0 20.6569 1.34315 22 3 22H13C14.6569 22 16 20.6569 16 19V3C16 1.34315 14.6569 0 13 0H3ZM13 2H3C2.44772 2 2 2.44772 2 3V19C2 19.5523 2.44772 20 3 20H13C13.5523 20 14 19.5523 14 19V3C14 2.44772 13.5523 2 13 2Z"/>
    </symbol>

    <symbol id="icon-menu5" viewBox="0 0 18 24">
        <path fill-rule="evenodd" clip-rule="evenodd"
              d="M18 8.77217L11.0208 1.79299C9.84924 0.621414 7.94975 0.621413 6.77817 1.79299L0 8.57116V23.0858H7V17.0858C7 15.9812 7.89543 15.0858 9 15.0858C10.1046 15.0858 11 15.9812 11 17.0858V23.0858H18V8.77217ZM8.19239 3.2072L2 9.39959V21.0858H5V17.0858C5 14.8767 6.79086 13.0858 9 13.0858C11.2091 13.0858 13 14.8767 13 17.0858V21.0858H16V9.6006L9.6066 3.2072C9.21608 2.81668 8.58291 2.81668 8.19239 3.2072Z"/>
    </symbol>

    <symbol id="icon-menu6" viewBox="0 0 24 24">
        <path
                d="M14.8287 6.34313L16.2429 4.92892L12.0002 0.686279L7.75759 4.92892L9.1718 6.34313L12.0002 3.51471L14.8287 6.34313Z"/>
        <path
                d="M4.92916 16.2426L6.34338 14.8284L3.51495 12L6.34338 9.17156L4.92916 7.75735L0.686523 12L4.92916 16.2426Z"/>
        <path
                d="M7.75759 19.0711L12.0002 23.3137L16.2429 19.0711L14.8287 17.6568L12.0002 20.4853L9.1718 17.6568L7.75759 19.0711Z"/>
        <path
                d="M17.6571 9.17156L20.4855 12L17.6571 14.8284L19.0713 16.2426L23.3139 12L19.0713 7.75735L17.6571 9.17156Z"/>
        <path fill-rule="evenodd" clip-rule="evenodd"
              d="M12.0002 8C14.2094 8 16.0002 9.79086 16.0002 12C16.0002 14.2091 14.2094 16 12.0002 16C9.79111 16 8.00024 14.2091 8.00024 12C8.00024 9.79086 9.79111 8 12.0002 8ZM12.0002 10C13.1048 10 14.0002 10.8954 14.0002 12C14.0002 13.1046 13.1048 14 12.0002 14C10.8957 14 10.0002 13.1046 10.0002 12C10.0002 10.8954 10.8957 10 12.0002 10Z"/>
    </symbol>

    <symbol id="search" viewBox="0 0 20 20">
        <path fill-rule="evenodd" clip-rule="evenodd" d="M9 0C13.9706 0 18 4.02944 18 9C18 11.1248 17.2637 13.0776 16.0323 14.6172L19.7071 18.2929C20.0976 18.6834 20.0976 19.3166 19.7071 19.7071C19.3466 20.0676 18.7794 20.0953 18.3871 19.7903L18.2929 19.7071L14.6172 16.0323C13.0776 17.2637 11.1248 18 9 18C4.02944 18 0 13.9706 0 9C0 4.02944 4.02944 0 9 0ZM9 2C5.13401 2 2 5.13401 2 9C2 12.866 5.13401 16 9 16C12.866 16 16 12.866 16 9C16 5.13401 12.866 2 9 2Z"/>
    </symbol>
    <symbol id="filter" viewBox="0 0 456.556 456.556">
    <g>
        <path d="M97.564,79.443H13.428C6.011,79.443,0,73.428,0,66.015s6.011-13.428,13.428-13.428h84.136
            c7.417,0,13.428,6.015,13.428,13.428S104.981,79.443,97.564,79.443z"/>
        <path d="M145.643,127.518c-33.916,0-61.507-27.591-61.507-61.504c0-33.92,27.591-61.511,61.507-61.511s61.507,27.591,61.507,61.511
            C207.15,99.928,179.559,127.518,145.643,127.518z M145.643,31.36c-19.107,0-34.651,15.547-34.651,34.654
            s15.544,34.647,34.651,34.647s34.651-15.54,34.651-34.647S164.75,31.36,145.643,31.36z"/>
        <path d="M443.128,79.443H242.433c-7.417,0-13.428-6.015-13.428-13.428s6.011-13.428,13.428-13.428h200.694
            c7.417,0,13.428,6.015,13.428,13.428S450.545,79.443,443.128,79.443z"/>
        <path d="M325.936,289.782c-33.917,0-61.507-27.591-61.507-61.504s27.591-61.504,61.507-61.504s61.507,27.591,61.507,61.504
            S359.853,289.782,325.936,289.782z M325.936,193.631c-19.107,0-34.651,15.54-34.651,34.647s15.544,34.647,34.651,34.647
            s34.651-15.54,34.651-34.647S345.043,193.631,325.936,193.631z"/>
        <path d="M229.149,241.706H13.428C6.011,241.706,0,235.691,0,228.278s6.011-13.428,13.428-13.428h215.721
            c7.417,0,13.428,6.015,13.428,13.428S236.566,241.706,229.149,241.706z"/>
        <path d="M443.128,241.706h-69.113c-7.417,0-13.428-6.015-13.428-13.428s6.011-13.428,13.428-13.428h69.113
            c7.417,0,13.428,6.015,13.428,13.428S450.545,241.706,443.128,241.706z"/>
        <path d="M130.62,452.052c-33.916,0-61.507-27.591-61.507-61.511c0-33.913,27.591-61.504,61.507-61.504s61.507,27.591,61.507,61.504
            C192.127,424.461,164.536,452.052,130.62,452.052z M130.62,355.894c-19.107,0-34.651,15.54-34.651,34.647
            s15.544,34.654,34.651,34.654s34.651-15.547,34.651-34.654S149.727,355.894,130.62,355.894z"/>
        <path d="M443.128,403.97H227.407c-7.417,0-13.428-6.015-13.428-13.428c0-7.413,6.011-13.428,13.428-13.428h215.721
            c7.417,0,13.428,6.015,13.428,13.428C456.556,397.955,450.545,403.97,443.128,403.97z"/>
        <path d="M82.541,403.97H13.428C6.011,403.97,0,397.955,0,390.541c0-7.413,6.011-13.428,13.428-13.428h69.113
            c7.417,0,13.428,6.015,13.428,13.428C95.969,397.955,89.958,403.97,82.541,403.97z"/>
    </g>
</symbol>



    <symbol id="phone" viewBox="0 0 32.666 32.666">
<g>
	<path d="M28.189,16.504h-1.666c0-5.437-4.422-9.858-9.856-9.858l-0.001-1.664C23.021,4.979,28.189,10.149,28.189,16.504z
		 M16.666,7.856L16.665,9.52c3.853,0,6.983,3.133,6.981,6.983l1.666-0.001C25.312,11.735,21.436,7.856,16.666,7.856z M16.333,0
		C7.326,0,0,7.326,0,16.334c0,9.006,7.326,16.332,16.333,16.332c0.557,0,1.007-0.45,1.007-1.006c0-0.559-0.45-1.01-1.007-1.01
		c-7.896,0-14.318-6.424-14.318-14.316c0-7.896,6.422-14.319,14.318-14.319c7.896,0,14.317,6.424,14.317,14.319
		c0,3.299-1.756,6.568-4.269,7.954c-0.913,0.502-1.903,0.751-2.959,0.761c0.634-0.377,1.183-0.887,1.591-1.529
		c0.08-0.121,0.186-0.228,0.238-0.359c0.328-0.789,0.357-1.684,0.555-2.518c0.243-1.064-4.658-3.143-5.084-1.814
		c-0.154,0.492-0.39,2.048-0.699,2.458c-0.275,0.366-0.953,0.192-1.377-0.168c-1.117-0.952-2.364-2.351-3.458-3.457l0.002-0.001
		c-0.028-0.029-0.062-0.061-0.092-0.092c-0.031-0.029-0.062-0.062-0.093-0.092v0.002c-1.106-1.096-2.506-2.34-3.457-3.459
		c-0.36-0.424-0.534-1.102-0.168-1.377c0.41-0.311,1.966-0.543,2.458-0.699c1.326-0.424-0.75-5.328-1.816-5.084
		c-0.832,0.195-1.727,0.227-2.516,0.553c-0.134,0.057-0.238,0.16-0.359,0.24c-2.799,1.774-3.16,6.082-0.428,9.292
		c1.041,1.228,2.127,2.416,3.245,3.576l-0.006,0.004c0.031,0.031,0.063,0.06,0.095,0.09c0.03,0.031,0.059,0.062,0.088,0.095
		l0.006-0.006c1.16,1.118,2.535,2.765,4.769,4.255c4.703,3.141,8.312,2.264,10.438,1.098c3.67-2.021,5.312-6.338,5.312-9.719
		C32.666,7.326,25.339,0,16.333,0z"/>
</g>
</symbol>

</svg>